<?xml version="1.0" encoding="UTF-8" standalone="no"?>
<!-- Created with matplotlib (https://matplotlib.org/) -->

<svg
   xmlns:dc="http://purl.org/dc/elements/1.1/"
   xmlns:cc="http://creativecommons.org/ns#"
   xmlns:rdf="http://www.w3.org/1999/02/22-rdf-syntax-ns#"
   xmlns:svg="http://www.w3.org/2000/svg"
   xmlns="http://www.w3.org/2000/svg"
   xmlns:xlink="http://www.w3.org/1999/xlink"
   xmlns:sodipodi="http://sodipodi.sourceforge.net/DTD/sodipodi-0.dtd"
   xmlns:inkscape="http://www.inkscape.org/namespaces/inkscape"
   height="288pt"
   version="1.1"
   viewBox="0 0 432 288"
   width="432pt"
   id="svg432"
   sodipodi:docname="figure2.svg"
   inkscape:version="0.92.3 (2405546, 2018-03-11)">
  <metadata
     id="metadata436">
    <rdf:RDF>
      <cc:Work
         rdf:about="">
        <dc:format>image/svg+xml</dc:format>
        <dc:type
           rdf:resource="http://purl.org/dc/dcmitype/StillImage" />
      </cc:Work>
    </rdf:RDF>
  </metadata>
  <sodipodi:namedview
     pagecolor="#ffffff"
     bordercolor="#666666"
     borderopacity="1"
     objecttolerance="10"
     gridtolerance="10"
     guidetolerance="10"
     inkscape:pageopacity="0"
     inkscape:pageshadow="2"
     inkscape:window-width="1920"
     inkscape:window-height="1012"
     id="namedview434"
     showgrid="false"
     inkscape:zoom="1.0347222"
     inkscape:cx="357.85231"
     inkscape:cy="137.05364"
     inkscape:window-x="0"
     inkscape:window-y="32"
     inkscape:window-maximized="1"
     inkscape:current-layer="axes_1" />
  <defs
     id="defs4">
    <style
       type="text/css"
       id="style2">
*{stroke-linecap:butt;stroke-linejoin:round;white-space:pre;}
  </style>
  </defs>
  <g
     id="figure_1">
    <g
       id="patch_1">
      <path
         d="M 0 288  L 432 288  L 432 0  L 0 0  z "
         style="fill:#ffffff;"
         id="path6" />
    </g>
    <g
       id="axes_1">
      <g
         id="patch_2">
        <path
           d="M 54 252  L 388.8 252  L 388.8 34.56  L 54 34.56  z "
           style="fill:#ffffff;"
           id="path9" />
      </g>
      <g
         id="matplotlib.axis_1">
        <g
           id="xtick_1">
          <g
             id="line2d_1">
            <defs
               id="defs13">
              <path
                 d="M 0 0  L 0 3.5  "
                 id="m6c835ee765"
                 style="stroke:#000000;stroke-width:0.8;" />
            </defs>
            <g
               id="g17">
              <use
                 style="stroke:#000000;stroke-width:0.8;"
                 x="68.382018"
                 xlink:href="#m6c835ee765"
                 y="252"
                 id="use15" />
            </g>
          </g>
          <g
             id="text_1">
            <!-- 0 -->
            <defs
               id="defs21">
              <path
                 d="M 31.78125 66.40625  Q 24.171875 66.40625 20.328125 58.90625  Q 16.5 51.421875 16.5 36.375  Q 16.5 21.390625 20.328125 13.890625  Q 24.171875 6.390625 31.78125 6.390625  Q 39.453125 6.390625 43.28125 13.890625  Q 47.125 21.390625 47.125 36.375  Q 47.125 51.421875 43.28125 58.90625  Q 39.453125 66.40625 31.78125 66.40625  z M 31.78125 74.21875  Q 44.046875 74.21875 50.515625 64.515625  Q 56.984375 54.828125 56.984375 36.375  Q 56.984375 17.96875 50.515625 8.265625  Q 44.046875 -1.421875 31.78125 -1.421875  Q 19.53125 -1.421875 13.0625 8.265625  Q 6.59375 17.96875 6.59375 36.375  Q 6.59375 54.828125 13.0625 64.515625  Q 19.53125 74.21875 31.78125 74.21875  z "
                 id="DejaVuSans-48" />
            </defs>
            <g
               transform="translate(65.200768 266.598437)scale(0.1 -0.1)"
               id="g25">
              <use
                 xlink:href="#DejaVuSans-48"
                 id="use23" />
            </g>
          </g>
        </g>
        <g
           id="xtick_2">
          <g
             id="line2d_2">
            <g
               id="g31">
              <use
                 style="stroke:#000000;stroke-width:0.8;"
                 x="110.19021"
                 xlink:href="#m6c835ee765"
                 y="252"
                 id="use29" />
            </g>
          </g>
          <g
             id="text_2">
            <!-- 50 -->
            <defs
               id="defs35">
              <path
                 d="M 10.796875 72.90625  L 49.515625 72.90625  L 49.515625 64.59375  L 19.828125 64.59375  L 19.828125 46.734375  Q 21.96875 47.46875 24.109375 47.828125  Q 26.265625 48.1875 28.421875 48.1875  Q 40.625 48.1875 47.75 41.5  Q 54.890625 34.8125 54.890625 23.390625  Q 54.890625 11.625 47.5625 5.09375  Q 40.234375 -1.421875 26.90625 -1.421875  Q 22.3125 -1.421875 17.546875 -0.640625  Q 12.796875 0.140625 7.71875 1.703125  L 7.71875 11.625  Q 12.109375 9.234375 16.796875 8.0625  Q 21.484375 6.890625 26.703125 6.890625  Q 35.15625 6.890625 40.078125 11.328125  Q 45.015625 15.765625 45.015625 23.390625  Q 45.015625 31 40.078125 35.4375  Q 35.15625 39.890625 26.703125 39.890625  Q 22.75 39.890625 18.8125 39.015625  Q 14.890625 38.140625 10.796875 36.28125  z "
                 id="DejaVuSans-53" />
            </defs>
            <g
               transform="translate(103.82771 266.598437)scale(0.1 -0.1)"
               id="g41">
              <use
                 xlink:href="#DejaVuSans-53"
                 id="use37" />
              <use
                 x="63.623047"
                 xlink:href="#DejaVuSans-48"
                 id="use39" />
            </g>
          </g>
        </g>
        <g
           id="xtick_3">
          <g
             id="line2d_3">
            <g
               id="g47">
              <use
                 style="stroke:#000000;stroke-width:0.8;"
                 x="151.998402"
                 xlink:href="#m6c835ee765"
                 y="252"
                 id="use45" />
            </g>
          </g>
          <g
             id="text_3">
            <!-- 100 -->
            <defs
               id="defs51">
              <path
                 d="M 12.40625 8.296875  L 28.515625 8.296875  L 28.515625 63.921875  L 10.984375 60.40625  L 10.984375 69.390625  L 28.421875 72.90625  L 38.28125 72.90625  L 38.28125 8.296875  L 54.390625 8.296875  L 54.390625 0  L 12.40625 0  z "
                 id="DejaVuSans-49" />
            </defs>
            <g
               transform="translate(142.454652 266.598437)scale(0.1 -0.1)"
               id="g59">
              <use
                 xlink:href="#DejaVuSans-49"
                 id="use53" />
              <use
                 x="63.623047"
                 xlink:href="#DejaVuSans-48"
                 id="use55" />
              <use
                 x="127.246094"
                 xlink:href="#DejaVuSans-48"
                 id="use57" />
            </g>
          </g>
        </g>
        <g
           id="xtick_4">
          <g
             id="line2d_4">
            <g
               id="g65">
              <use
                 style="stroke:#000000;stroke-width:0.8;"
                 x="193.806593"
                 xlink:href="#m6c835ee765"
                 y="252"
                 id="use63" />
            </g>
          </g>
          <g
             id="text_4">
            <!-- 150 -->
            <g
               transform="translate(184.262843 266.598437)scale(0.1 -0.1)"
               id="g74">
              <use
                 xlink:href="#DejaVuSans-49"
                 id="use68" />
              <use
                 x="63.623047"
                 xlink:href="#DejaVuSans-53"
                 id="use70" />
              <use
                 x="127.246094"
                 xlink:href="#DejaVuSans-48"
                 id="use72" />
            </g>
          </g>
        </g>
        <g
           id="xtick_5">
          <g
             id="line2d_5">
            <g
               id="g80">
              <use
                 style="stroke:#000000;stroke-width:0.8;"
                 x="235.614785"
                 xlink:href="#m6c835ee765"
                 y="252"
                 id="use78" />
            </g>
          </g>
          <g
             id="text_5">
            <!-- 200 -->
            <defs
               id="defs84">
              <path
                 d="M 19.1875 8.296875  L 53.609375 8.296875  L 53.609375 0  L 7.328125 0  L 7.328125 8.296875  Q 12.9375 14.109375 22.625 23.890625  Q 32.328125 33.6875 34.8125 36.53125  Q 39.546875 41.84375 41.421875 45.53125  Q 43.3125 49.21875 43.3125 52.78125  Q 43.3125 58.59375 39.234375 62.25  Q 35.15625 65.921875 28.609375 65.921875  Q 23.96875 65.921875 18.8125 64.3125  Q 13.671875 62.703125 7.8125 59.421875  L 7.8125 69.390625  Q 13.765625 71.78125 18.9375 73  Q 24.125 74.21875 28.421875 74.21875  Q 39.75 74.21875 46.484375 68.546875  Q 53.21875 62.890625 53.21875 53.421875  Q 53.21875 48.921875 51.53125 44.890625  Q 49.859375 40.875 45.40625 35.40625  Q 44.1875 33.984375 37.640625 27.21875  Q 31.109375 20.453125 19.1875 8.296875  z "
                 id="DejaVuSans-50" />
            </defs>
            <g
               transform="translate(226.071035 266.598437)scale(0.1 -0.1)"
               id="g92">
              <use
                 xlink:href="#DejaVuSans-50"
                 id="use86" />
              <use
                 x="63.623047"
                 xlink:href="#DejaVuSans-48"
                 id="use88" />
              <use
                 x="127.246094"
                 xlink:href="#DejaVuSans-48"
                 id="use90" />
            </g>
          </g>
        </g>
        <g
           id="xtick_6">
          <g
             id="line2d_6">
            <g
               id="g98">
              <use
                 style="stroke:#000000;stroke-width:0.8;"
                 x="277.422977"
                 xlink:href="#m6c835ee765"
                 y="252"
                 id="use96" />
            </g>
          </g>
          <g
             id="text_6">
            <!-- 250 -->
            <g
               transform="translate(267.879227 266.598437)scale(0.1 -0.1)"
               id="g107">
              <use
                 xlink:href="#DejaVuSans-50"
                 id="use101" />
              <use
                 x="63.623047"
                 xlink:href="#DejaVuSans-53"
                 id="use103" />
              <use
                 x="127.246094"
                 xlink:href="#DejaVuSans-48"
                 id="use105" />
            </g>
          </g>
        </g>
        <g
           id="xtick_7">
          <g
             id="line2d_7">
            <g
               id="g113">
              <use
                 style="stroke:#000000;stroke-width:0.8;"
                 x="319.231169"
                 xlink:href="#m6c835ee765"
                 y="252"
                 id="use111" />
            </g>
          </g>
          <g
             id="text_7">
            <!-- 300 -->
            <defs
               id="defs117">
              <path
                 d="M 40.578125 39.3125  Q 47.65625 37.796875 51.625 33  Q 55.609375 28.21875 55.609375 21.1875  Q 55.609375 10.40625 48.1875 4.484375  Q 40.765625 -1.421875 27.09375 -1.421875  Q 22.515625 -1.421875 17.65625 -0.515625  Q 12.796875 0.390625 7.625 2.203125  L 7.625 11.71875  Q 11.71875 9.328125 16.59375 8.109375  Q 21.484375 6.890625 26.8125 6.890625  Q 36.078125 6.890625 40.9375 10.546875  Q 45.796875 14.203125 45.796875 21.1875  Q 45.796875 27.640625 41.28125 31.265625  Q 36.765625 34.90625 28.71875 34.90625  L 20.21875 34.90625  L 20.21875 43.015625  L 29.109375 43.015625  Q 36.375 43.015625 40.234375 45.921875  Q 44.09375 48.828125 44.09375 54.296875  Q 44.09375 59.90625 40.109375 62.90625  Q 36.140625 65.921875 28.71875 65.921875  Q 24.65625 65.921875 20.015625 65.03125  Q 15.375 64.15625 9.8125 62.3125  L 9.8125 71.09375  Q 15.4375 72.65625 20.34375 73.4375  Q 25.25 74.21875 29.59375 74.21875  Q 40.828125 74.21875 47.359375 69.109375  Q 53.90625 64.015625 53.90625 55.328125  Q 53.90625 49.265625 50.4375 45.09375  Q 46.96875 40.921875 40.578125 39.3125  z "
                 id="DejaVuSans-51" />
            </defs>
            <g
               transform="translate(309.687419 266.598437)scale(0.1 -0.1)"
               id="g125">
              <use
                 xlink:href="#DejaVuSans-51"
                 id="use119" />
              <use
                 x="63.623047"
                 xlink:href="#DejaVuSans-48"
                 id="use121" />
              <use
                 x="127.246094"
                 xlink:href="#DejaVuSans-48"
                 id="use123" />
            </g>
          </g>
        </g>
        <g
           id="xtick_8">
          <g
             id="line2d_8">
            <g
               id="g131">
              <use
                 style="stroke:#000000;stroke-width:0.8;"
                 x="361.039361"
                 xlink:href="#m6c835ee765"
                 y="252"
                 id="use129" />
            </g>
          </g>
          <g
             id="text_8">
            <!-- 350 -->
            <g
               transform="translate(351.495611 266.598437)scale(0.1 -0.1)"
               id="g140">
              <use
                 xlink:href="#DejaVuSans-51"
                 id="use134" />
              <use
                 x="63.623047"
                 xlink:href="#DejaVuSans-53"
                 id="use136" />
              <use
                 x="127.246094"
                 xlink:href="#DejaVuSans-48"
                 id="use138" />
            </g>
          </g>
        </g>
        <g
           id="text_9">
          <!-- Day of the year -->
          <defs
             id="defs154">
            <path
               d="M 19.671875 64.796875  L 19.671875 8.109375  L 31.59375 8.109375  Q 46.6875 8.109375 53.6875 14.9375  Q 60.6875 21.78125 60.6875 36.53125  Q 60.6875 51.171875 53.6875 57.984375  Q 46.6875 64.796875 31.59375 64.796875  z M 9.8125 72.90625  L 30.078125 72.90625  Q 51.265625 72.90625 61.171875 64.09375  Q 71.09375 55.28125 71.09375 36.53125  Q 71.09375 17.671875 61.125 8.828125  Q 51.171875 0 30.078125 0  L 9.8125 0  z "
               id="DejaVuSans-68" />
            <path
               d="M 34.28125 27.484375  Q 23.390625 27.484375 19.1875 25  Q 14.984375 22.515625 14.984375 16.5  Q 14.984375 11.71875 18.140625 8.90625  Q 21.296875 6.109375 26.703125 6.109375  Q 34.1875 6.109375 38.703125 11.40625  Q 43.21875 16.703125 43.21875 25.484375  L 43.21875 27.484375  z M 52.203125 31.203125  L 52.203125 0  L 43.21875 0  L 43.21875 8.296875  Q 40.140625 3.328125 35.546875 0.953125  Q 30.953125 -1.421875 24.3125 -1.421875  Q 15.921875 -1.421875 10.953125 3.296875  Q 6 8.015625 6 15.921875  Q 6 25.140625 12.171875 29.828125  Q 18.359375 34.515625 30.609375 34.515625  L 43.21875 34.515625  L 43.21875 35.40625  Q 43.21875 41.609375 39.140625 45  Q 35.0625 48.390625 27.6875 48.390625  Q 23 48.390625 18.546875 47.265625  Q 14.109375 46.140625 10.015625 43.890625  L 10.015625 52.203125  Q 14.9375 54.109375 19.578125 55.046875  Q 24.21875 56 28.609375 56  Q 40.484375 56 46.34375 49.84375  Q 52.203125 43.703125 52.203125 31.203125  z "
               id="DejaVuSans-97" />
            <path
               d="M 32.171875 -5.078125  Q 28.375 -14.84375 24.75 -17.8125  Q 21.140625 -20.796875 15.09375 -20.796875  L 7.90625 -20.796875  L 7.90625 -13.28125  L 13.1875 -13.28125  Q 16.890625 -13.28125 18.9375 -11.515625  Q 21 -9.765625 23.484375 -3.21875  L 25.09375 0.875  L 2.984375 54.6875  L 12.5 54.6875  L 29.59375 11.921875  L 46.6875 54.6875  L 56.203125 54.6875  z "
               id="DejaVuSans-121" />
            <path
               id="DejaVuSans-32" />
            <path
               d="M 30.609375 48.390625  Q 23.390625 48.390625 19.1875 42.75  Q 14.984375 37.109375 14.984375 27.296875  Q 14.984375 17.484375 19.15625 11.84375  Q 23.34375 6.203125 30.609375 6.203125  Q 37.796875 6.203125 41.984375 11.859375  Q 46.1875 17.53125 46.1875 27.296875  Q 46.1875 37.015625 41.984375 42.703125  Q 37.796875 48.390625 30.609375 48.390625  z M 30.609375 56  Q 42.328125 56 49.015625 48.375  Q 55.71875 40.765625 55.71875 27.296875  Q 55.71875 13.875 49.015625 6.21875  Q 42.328125 -1.421875 30.609375 -1.421875  Q 18.84375 -1.421875 12.171875 6.21875  Q 5.515625 13.875 5.515625 27.296875  Q 5.515625 40.765625 12.171875 48.375  Q 18.84375 56 30.609375 56  z "
               id="DejaVuSans-111" />
            <path
               d="M 37.109375 75.984375  L 37.109375 68.5  L 28.515625 68.5  Q 23.6875 68.5 21.796875 66.546875  Q 19.921875 64.59375 19.921875 59.515625  L 19.921875 54.6875  L 34.71875 54.6875  L 34.71875 47.703125  L 19.921875 47.703125  L 19.921875 0  L 10.890625 0  L 10.890625 47.703125  L 2.296875 47.703125  L 2.296875 54.6875  L 10.890625 54.6875  L 10.890625 58.5  Q 10.890625 67.625 15.140625 71.796875  Q 19.390625 75.984375 28.609375 75.984375  z "
               id="DejaVuSans-102" />
            <path
               d="M 18.3125 70.21875  L 18.3125 54.6875  L 36.8125 54.6875  L 36.8125 47.703125  L 18.3125 47.703125  L 18.3125 18.015625  Q 18.3125 11.328125 20.140625 9.421875  Q 21.96875 7.515625 27.59375 7.515625  L 36.8125 7.515625  L 36.8125 0  L 27.59375 0  Q 17.1875 0 13.234375 3.875  Q 9.28125 7.765625 9.28125 18.015625  L 9.28125 47.703125  L 2.6875 47.703125  L 2.6875 54.6875  L 9.28125 54.6875  L 9.28125 70.21875  z "
               id="DejaVuSans-116" />
            <path
               d="M 54.890625 33.015625  L 54.890625 0  L 45.90625 0  L 45.90625 32.71875  Q 45.90625 40.484375 42.875 44.328125  Q 39.84375 48.1875 33.796875 48.1875  Q 26.515625 48.1875 22.3125 43.546875  Q 18.109375 38.921875 18.109375 30.90625  L 18.109375 0  L 9.078125 0  L 9.078125 75.984375  L 18.109375 75.984375  L 18.109375 46.1875  Q 21.34375 51.125 25.703125 53.5625  Q 30.078125 56 35.796875 56  Q 45.21875 56 50.046875 50.171875  Q 54.890625 44.34375 54.890625 33.015625  z "
               id="DejaVuSans-104" />
            <path
               d="M 56.203125 29.59375  L 56.203125 25.203125  L 14.890625 25.203125  Q 15.484375 15.921875 20.484375 11.0625  Q 25.484375 6.203125 34.421875 6.203125  Q 39.59375 6.203125 44.453125 7.46875  Q 49.3125 8.734375 54.109375 11.28125  L 54.109375 2.78125  Q 49.265625 0.734375 44.1875 -0.34375  Q 39.109375 -1.421875 33.890625 -1.421875  Q 20.796875 -1.421875 13.15625 6.1875  Q 5.515625 13.8125 5.515625 26.8125  Q 5.515625 40.234375 12.765625 48.109375  Q 20.015625 56 32.328125 56  Q 43.359375 56 49.78125 48.890625  Q 56.203125 41.796875 56.203125 29.59375  z M 47.21875 32.234375  Q 47.125 39.59375 43.09375 43.984375  Q 39.0625 48.390625 32.421875 48.390625  Q 24.90625 48.390625 20.390625 44.140625  Q 15.875 39.890625 15.1875 32.171875  z "
               id="DejaVuSans-101" />
            <path
               d="M 41.109375 46.296875  Q 39.59375 47.171875 37.8125 47.578125  Q 36.03125 48 33.890625 48  Q 26.265625 48 22.1875 43.046875  Q 18.109375 38.09375 18.109375 28.8125  L 18.109375 0  L 9.078125 0  L 9.078125 54.6875  L 18.109375 54.6875  L 18.109375 46.1875  Q 20.953125 51.171875 25.484375 53.578125  Q 30.03125 56 36.53125 56  Q 37.453125 56 38.578125 55.875  Q 39.703125 55.765625 41.0625 55.515625  z "
               id="DejaVuSans-114" />
          </defs>
          <g
             transform="translate(167.050469 283.315938)scale(0.14 -0.14)"
             id="g186">
            <use
               xlink:href="#DejaVuSans-68"
               id="use156" />
            <use
               x="77.001953"
               xlink:href="#DejaVuSans-97"
               id="use158" />
            <use
               x="138.28125"
               xlink:href="#DejaVuSans-121"
               id="use160" />
            <use
               x="197.460938"
               xlink:href="#DejaVuSans-32"
               id="use162" />
            <use
               x="229.248047"
               xlink:href="#DejaVuSans-111"
               id="use164" />
            <use
               x="290.429688"
               xlink:href="#DejaVuSans-102"
               id="use166" />
            <use
               x="325.634766"
               xlink:href="#DejaVuSans-32"
               id="use168" />
            <use
               x="357.421875"
               xlink:href="#DejaVuSans-116"
               id="use170" />
            <use
               x="396.630859"
               xlink:href="#DejaVuSans-104"
               id="use172" />
            <use
               x="460.009766"
               xlink:href="#DejaVuSans-101"
               id="use174" />
            <use
               x="521.533203"
               xlink:href="#DejaVuSans-32"
               id="use176" />
            <use
               x="553.320312"
               xlink:href="#DejaVuSans-121"
               id="use178" />
            <use
               x="612.5"
               xlink:href="#DejaVuSans-101"
               id="use180" />
            <use
               x="674.023438"
               xlink:href="#DejaVuSans-97"
               id="use182" />
            <use
               x="735.302734"
               xlink:href="#DejaVuSans-114"
               id="use184" />
          </g>
        </g>
      </g>
      <g
         id="matplotlib.axis_2">
        <g
           id="ytick_1">
          <g
             id="line2d_9">
            <defs
               id="defs191">
              <path
                 d="M 0 0  L -3.5 0  "
                 id="m8076ed974a"
                 style="stroke:#000000;stroke-width:0.8;" />
            </defs>
            <g
               id="g195">
              <use
                 style="stroke:#000000;stroke-width:0.8;"
                 x="54"
                 xlink:href="#m8076ed974a"
                 y="239.906669"
                 id="use193" />
            </g>
          </g>
          <g
             id="text_10">
            <!-- 1000 -->
            <g
               transform="translate(21.55 243.705888)scale(0.1 -0.1)"
               id="g206">
              <use
                 xlink:href="#DejaVuSans-49"
                 id="use198" />
              <use
                 x="63.623047"
                 xlink:href="#DejaVuSans-48"
                 id="use200" />
              <use
                 x="127.246094"
                 xlink:href="#DejaVuSans-48"
                 id="use202" />
              <use
                 x="190.869141"
                 xlink:href="#DejaVuSans-48"
                 id="use204" />
            </g>
          </g>
        </g>
        <g
           id="ytick_2">
          <g
             id="line2d_10">
            <g
               id="g212">
              <use
                 style="stroke:#000000;stroke-width:0.8;"
                 x="54"
                 xlink:href="#m8076ed974a"
                 y="209.611103"
                 id="use210" />
            </g>
          </g>
          <g
             id="text_11">
            <!-- 1500 -->
            <g
               transform="translate(21.55 213.410321)scale(0.1 -0.1)"
               id="g223">
              <use
                 xlink:href="#DejaVuSans-49"
                 id="use215" />
              <use
                 x="63.623047"
                 xlink:href="#DejaVuSans-53"
                 id="use217" />
              <use
                 x="127.246094"
                 xlink:href="#DejaVuSans-48"
                 id="use219" />
              <use
                 x="190.869141"
                 xlink:href="#DejaVuSans-48"
                 id="use221" />
            </g>
          </g>
        </g>
        <g
           id="ytick_3">
          <g
             id="line2d_11">
            <g
               id="g229">
              <use
                 style="stroke:#000000;stroke-width:0.8;"
                 x="54"
                 xlink:href="#m8076ed974a"
                 y="179.315536"
                 id="use227" />
            </g>
          </g>
          <g
             id="text_12">
            <!-- 2000 -->
            <g
               transform="translate(21.55 183.114755)scale(0.1 -0.1)"
               id="g240">
              <use
                 xlink:href="#DejaVuSans-50"
                 id="use232" />
              <use
                 x="63.623047"
                 xlink:href="#DejaVuSans-48"
                 id="use234" />
              <use
                 x="127.246094"
                 xlink:href="#DejaVuSans-48"
                 id="use236" />
              <use
                 x="190.869141"
                 xlink:href="#DejaVuSans-48"
                 id="use238" />
            </g>
          </g>
        </g>
        <g
           id="ytick_4">
          <g
             id="line2d_12">
            <g
               id="g246">
              <use
                 style="stroke:#000000;stroke-width:0.8;"
                 x="54"
                 xlink:href="#m8076ed974a"
                 y="149.01997"
                 id="use244" />
            </g>
          </g>
          <g
             id="text_13">
            <!-- 2500 -->
            <g
               transform="translate(21.55 152.819189)scale(0.1 -0.1)"
               id="g257">
              <use
                 xlink:href="#DejaVuSans-50"
                 id="use249" />
              <use
                 x="63.623047"
                 xlink:href="#DejaVuSans-53"
                 id="use251" />
              <use
                 x="127.246094"
                 xlink:href="#DejaVuSans-48"
                 id="use253" />
              <use
                 x="190.869141"
                 xlink:href="#DejaVuSans-48"
                 id="use255" />
            </g>
          </g>
        </g>
        <g
           id="ytick_5">
          <g
             id="line2d_13">
            <g
               id="g263">
              <use
                 style="stroke:#000000;stroke-width:0.8;"
                 x="54"
                 xlink:href="#m8076ed974a"
                 y="118.724404"
                 id="use261" />
            </g>
          </g>
          <g
             id="text_14">
            <!-- 3000 -->
            <g
               transform="translate(21.55 122.523623)scale(0.1 -0.1)"
               id="g274">
              <use
                 xlink:href="#DejaVuSans-51"
                 id="use266" />
              <use
                 x="63.623047"
                 xlink:href="#DejaVuSans-48"
                 id="use268" />
              <use
                 x="127.246094"
                 xlink:href="#DejaVuSans-48"
                 id="use270" />
              <use
                 x="190.869141"
                 xlink:href="#DejaVuSans-48"
                 id="use272" />
            </g>
          </g>
        </g>
        <g
           id="ytick_6">
          <g
             id="line2d_14">
            <g
               id="g280">
              <use
                 style="stroke:#000000;stroke-width:0.8;"
                 x="54"
                 xlink:href="#m8076ed974a"
                 y="88.428838"
                 id="use278" />
            </g>
          </g>
          <g
             id="text_15">
            <!-- 3500 -->
            <g
               transform="translate(21.55 92.228056)scale(0.1 -0.1)"
               id="g291">
              <use
                 xlink:href="#DejaVuSans-51"
                 id="use283" />
              <use
                 x="63.623047"
                 xlink:href="#DejaVuSans-53"
                 id="use285" />
              <use
                 x="127.246094"
                 xlink:href="#DejaVuSans-48"
                 id="use287" />
              <use
                 x="190.869141"
                 xlink:href="#DejaVuSans-48"
                 id="use289" />
            </g>
          </g>
        </g>
        <g
           id="ytick_7">
          <g
             id="line2d_15">
            <g
               id="g297">
              <use
                 style="stroke:#000000;stroke-width:0.8;"
                 x="54"
                 xlink:href="#m8076ed974a"
                 y="58.133271"
                 id="use295" />
            </g>
          </g>
          <g
             id="text_16">
            <!-- 4000 -->
            <defs
               id="defs301">
              <path
                 d="M 37.796875 64.3125  L 12.890625 25.390625  L 37.796875 25.390625  z M 35.203125 72.90625  L 47.609375 72.90625  L 47.609375 25.390625  L 58.015625 25.390625  L 58.015625 17.1875  L 47.609375 17.1875  L 47.609375 0  L 37.796875 0  L 37.796875 17.1875  L 4.890625 17.1875  L 4.890625 26.703125  z "
                 id="DejaVuSans-52" />
            </defs>
            <g
               transform="translate(21.55 61.93249)scale(0.1 -0.1)"
               id="g311">
              <use
                 xlink:href="#DejaVuSans-52"
                 id="use303" />
              <use
                 x="63.623047"
                 xlink:href="#DejaVuSans-48"
                 id="use305" />
              <use
                 x="127.246094"
                 xlink:href="#DejaVuSans-48"
                 id="use307" />
              <use
                 x="190.869141"
                 xlink:href="#DejaVuSans-48"
                 id="use309" />
            </g>
          </g>
        </g>
        <g
           id="text_17">
          <!-- EVI -->
          <defs
             id="defs318">
            <path
               d="M 9.8125 72.90625  L 55.90625 72.90625  L 55.90625 64.59375  L 19.671875 64.59375  L 19.671875 43.015625  L 54.390625 43.015625  L 54.390625 34.71875  L 19.671875 34.71875  L 19.671875 8.296875  L 56.78125 8.296875  L 56.78125 0  L 9.8125 0  z "
               id="DejaVuSans-69" />
            <path
               d="M 28.609375 0  L 0.78125 72.90625  L 11.078125 72.90625  L 34.1875 11.53125  L 57.328125 72.90625  L 67.578125 72.90625  L 39.796875 0  z "
               id="DejaVuSans-86" />
            <path
               d="M 9.8125 72.90625  L 19.671875 72.90625  L 19.671875 0  L 9.8125 0  z "
               id="DejaVuSans-73" />
          </defs>
          <g
             transform="translate(14.638437 154.556563)rotate(-90)scale(0.14 -0.14)"
             id="g326">
            <use
               xlink:href="#DejaVuSans-69"
               id="use320" />
            <use
               x="63.183594"
               xlink:href="#DejaVuSans-86"
               id="use322" />
            <use
               x="131.591797"
               xlink:href="#DejaVuSans-73"
               id="use324" />
          </g>
        </g>
      </g>
      <g
         id="line2d_16">
        <path
           clip-path="url(#p53eb140239)"
           d="M 69.218182 237.646671  L 75.907493 237.646671  L 82.596803 237.646671  L 89.286114 237.646671  L 95.975425 237.934819  L 102.664735 238.62355  L 109.354046 242.116364  L 116.043357 241.059189  L 122.732667 227.777269  L 129.421978 240.045054  L 136.111289 233.017988  L 142.800599 216.807949  L 150.326074 210.946098  L 157.015385 194.52199  L 163.704695 208.64468  L 170.394006 164.592294  L 177.083317 139.18124  L 183.772627 131.487367  L 190.461938 120.645312  L 197.151249 110.792209  L 203.840559 98.546994  L 210.52987 79.125446  L 217.219181 58.393893  L 224.744655 57.980325  L 231.433966 44.443636  L 238.123277 51.503744  L 244.812587 53.720575  L 251.501898 55.742311  L 258.191209 62.447602  L 264.880519 64.733203  L 271.56983 73.014068  L 278.259141 80.275973  L 284.948452 87.852338  L 291.637762 89.004118  L 299.163237 106.550625  L 305.852547 128.659616  L 312.541858 117.171966  L 319.231169 128.391387  L 325.92048 147.161571  L 332.60979 165.931755  L 339.299101 191.13637  L 345.988412 208.942422  L 352.677722 208.152126  L 359.367033 220.653029  L 366.056344 223.255005  L 373.581818 229.394967  "
           style="fill:none;stroke:#000000;stroke-linecap:square;stroke-width:1.5;"
           id="path330" />
      </g>
      <g
         id="line2d_17"
         transform="translate(54.362416,-0.72483222)"
         style="white-space:pre;stroke-linecap:butt;stroke-linejoin:round">
        <defs
           id="defs334">
          <path
             d="M -3.75,7.5 0,3.75 3.75,7.5 7.5,3.75 3.75,0 7.5,-3.75 3.75,-7.5 0,-3.75 -3.75,-7.5 -7.5,-3.75 -3.75,0 -7.5,3.75 Z"
             id="m5e5a8ce54f"
             style="white-space:pre;stroke:#1f77b4;stroke-linecap:butt;stroke-linejoin:miter"
             inkscape:connector-curvature="0" />
        </defs>
        <g
           clip-path="url(#p53eb140239)"
           id="g338"
           style="white-space:pre;stroke-linecap:butt;stroke-linejoin:round">
          <use
             style="white-space:pre;fill:#1f77b4;stroke:#1f77b4;stroke-linecap:butt;stroke-linejoin:miter"
             x="75.907494"
             xlink:href="#m5e5a8ce54f"
             y="237.64667"
             id="use336"
             width="100%"
             height="100%" />
        </g>
      </g>
      <g
         id="line2d_18">
        <defs
           id="defs342">
          <path
             d="M -3.75 7.5  L 0 3.75  L 3.75 7.5  L 7.5 3.75  L 3.75 0  L 7.5 -3.75  L 3.75 -7.5  L 0 -3.75  L -3.75 -7.5  L -7.5 -3.75  L -3.75 0  L -7.5 3.75  z "
             id="m6cc83fe932"
             style="stroke:#ff7f0e;stroke-linejoin:miter;" />
        </defs>
        <g
           clip-path="url(#p53eb140239)"
           id="g346">
          <use
             style="fill:#ff7f0e;stroke:#ff7f0e;stroke-linejoin:miter;"
             x="231.433966"
             xlink:href="#m6cc83fe932"
             y="44.443636"
             id="use344" />
        </g>
      </g>
      <g
         id="line2d_19">
        <defs
           id="defs350">
          <path
             d="M -3.75 7.5  L 0 3.75  L 3.75 7.5  L 7.5 3.75  L 3.75 0  L 7.5 -3.75  L 3.75 -7.5  L 0 -3.75  L -3.75 -7.5  L -7.5 -3.75  L -3.75 0  L -7.5 3.75  z "
             id="mbf2fc5bda2"
             style="stroke:#2ca02c;stroke-linejoin:miter;" />
        </defs>
        <g
           clip-path="url(#p53eb140239)"
           id="g354">
          <use
             style="fill:#2ca02c;stroke:#2ca02c;stroke-linejoin:miter;"
             x="373.581818"
             xlink:href="#mbf2fc5bda2"
             y="229.394967"
             id="use352" />
        </g>
      </g>
      <g
         id="patch_3">
        <path
           d="M 54 252  L 54 34.56  "
           style="fill:none;stroke:#000000;stroke-linecap:square;stroke-linejoin:miter;stroke-width:0.8;"
           id="path357" />
      </g>
      <g
         id="patch_4">
        <path
           d="M 388.8 252  L 388.8 34.56  "
           style="fill:none;stroke:#000000;stroke-linecap:square;stroke-linejoin:miter;stroke-width:0.8;"
           id="path360" />
      </g>
      <g
         id="patch_5">
        <path
           d="M 54 252  L 388.8 252  "
           style="fill:none;stroke:#000000;stroke-linecap:square;stroke-linejoin:miter;stroke-width:0.8;"
           id="path363" />
      </g>
      <g
         id="patch_6">
        <path
           d="M 54 34.56  L 388.8 34.56  "
           style="fill:none;stroke:#000000;stroke-linecap:square;stroke-linejoin:miter;stroke-width:0.8;"
           id="path366" />
      </g>
      <g
         id="legend_1">
        <g
           id="patch_7">
          <path
             d="M 329.23125 86.594375  L 381.8 86.594375  Q 383.8 86.594375 383.8 84.594375  L 383.8 41.56  Q 383.8 39.56 381.8 39.56  L 329.23125 39.56  Q 327.23125 39.56 327.23125 41.56  L 327.23125 84.594375  Q 327.23125 86.594375 329.23125 86.594375  z "
             style="fill:#ffffff;opacity:0.8;stroke:#cccccc;stroke-linejoin:miter;"
             id="path369" />
        </g>
        <g
           id="line2d_20" />
        <g
           id="line2d_21">
          <g
             id="g375">
            <use
               style="fill:#1f77b4;stroke:#1f77b4;stroke-linejoin:miter;"
               x="341.23125"
               xlink:href="#m5e5a8ce54f"
               y="47.658438"
               id="use373" />
          </g>
        </g>
        <g
           id="text_18">
          <!-- SOS -->
          <defs
             id="defs380">
            <path
               d="M 53.515625 70.515625  L 53.515625 60.890625  Q 47.90625 63.578125 42.921875 64.890625  Q 37.9375 66.21875 33.296875 66.21875  Q 25.25 66.21875 20.875 63.09375  Q 16.5 59.96875 16.5 54.203125  Q 16.5 49.359375 19.40625 46.890625  Q 22.3125 44.4375 30.421875 42.921875  L 36.375 41.703125  Q 47.40625 39.59375 52.65625 34.296875  Q 57.90625 29 57.90625 20.125  Q 57.90625 9.515625 50.796875 4.046875  Q 43.703125 -1.421875 29.984375 -1.421875  Q 24.8125 -1.421875 18.96875 -0.25  Q 13.140625 0.921875 6.890625 3.21875  L 6.890625 13.375  Q 12.890625 10.015625 18.65625 8.296875  Q 24.421875 6.59375 29.984375 6.59375  Q 38.421875 6.59375 43.015625 9.90625  Q 47.609375 13.234375 47.609375 19.390625  Q 47.609375 24.75 44.3125 27.78125  Q 41.015625 30.8125 33.5 32.328125  L 27.484375 33.5  Q 16.453125 35.6875 11.515625 40.375  Q 6.59375 45.0625 6.59375 53.421875  Q 6.59375 63.09375 13.40625 68.65625  Q 20.21875 74.21875 32.171875 74.21875  Q 37.3125 74.21875 42.625 73.28125  Q 47.953125 72.359375 53.515625 70.515625  z "
               id="DejaVuSans-83" />
            <path
               d="M 39.40625 66.21875  Q 28.65625 66.21875 22.328125 58.203125  Q 16.015625 50.203125 16.015625 36.375  Q 16.015625 22.609375 22.328125 14.59375  Q 28.65625 6.59375 39.40625 6.59375  Q 50.140625 6.59375 56.421875 14.59375  Q 62.703125 22.609375 62.703125 36.375  Q 62.703125 50.203125 56.421875 58.203125  Q 50.140625 66.21875 39.40625 66.21875  z M 39.40625 74.21875  Q 54.734375 74.21875 63.90625 63.9375  Q 73.09375 53.65625 73.09375 36.375  Q 73.09375 19.140625 63.90625 8.859375  Q 54.734375 -1.421875 39.40625 -1.421875  Q 24.03125 -1.421875 14.8125 8.828125  Q 5.609375 19.09375 5.609375 36.375  Q 5.609375 53.65625 14.8125 63.9375  Q 24.03125 74.21875 39.40625 74.21875  z "
               id="DejaVuSans-79" />
          </defs>
          <g
             transform="translate(359.23125 51.158438)scale(0.1 -0.1)"
             id="g388">
            <use
               xlink:href="#DejaVuSans-83"
               id="use382" />
            <use
               x="63.476562"
               xlink:href="#DejaVuSans-79"
               id="use384" />
            <use
               x="142.1875"
               xlink:href="#DejaVuSans-83"
               id="use386" />
          </g>
        </g>
        <g
           id="line2d_22" />
        <g
           id="line2d_23">
          <g
             id="g394">
            <use
               style="fill:#ff7f0e;stroke:#ff7f0e;stroke-linejoin:miter;"
               x="341.23125"
               xlink:href="#m6cc83fe932"
               y="62.336563"
               id="use392" />
          </g>
        </g>
        <g
           id="text_19">
          <!-- POS -->
          <defs
             id="defs398">
            <path
               d="M 19.671875 64.796875  L 19.671875 37.40625  L 32.078125 37.40625  Q 38.96875 37.40625 42.71875 40.96875  Q 46.484375 44.53125 46.484375 51.125  Q 46.484375 57.671875 42.71875 61.234375  Q 38.96875 64.796875 32.078125 64.796875  z M 9.8125 72.90625  L 32.078125 72.90625  Q 44.34375 72.90625 50.609375 67.359375  Q 56.890625 61.8125 56.890625 51.125  Q 56.890625 40.328125 50.609375 34.8125  Q 44.34375 29.296875 32.078125 29.296875  L 19.671875 29.296875  L 19.671875 0  L 9.8125 0  z "
               id="DejaVuSans-80" />
          </defs>
          <g
             transform="translate(359.23125 65.836563)scale(0.1 -0.1)"
             id="g406">
            <use
               xlink:href="#DejaVuSans-80"
               id="use400" />
            <use
               x="60.302734"
               xlink:href="#DejaVuSans-79"
               id="use402" />
            <use
               x="139.013672"
               xlink:href="#DejaVuSans-83"
               id="use404" />
          </g>
        </g>
        <g
           id="line2d_24" />
        <g
           id="line2d_25">
          <g
             id="g412">
            <use
               style="fill:#2ca02c;stroke:#2ca02c;stroke-linejoin:miter;"
               x="341.23125"
               xlink:href="#mbf2fc5bda2"
               y="77.014688"
               id="use410" />
          </g>
        </g>
        <g
           id="text_20">
          <!-- EOS -->
          <g
             transform="translate(359.23125 80.514688)scale(0.1 -0.1)"
             id="g421">
            <use
               xlink:href="#DejaVuSans-69"
               id="use415" />
            <use
               x="63.183594"
               xlink:href="#DejaVuSans-79"
               id="use417" />
            <use
               x="141.894531"
               xlink:href="#DejaVuSans-83"
               id="use419" />
          </g>
        </g>
      </g>
    </g>
  </g>
  <defs
     id="defs430">
    <clipPath
       id="p53eb140239">
      <rect
         height="217.44"
         width="334.8"
         x="54"
         y="34.56"
         id="rect427" />
    </clipPath>
  </defs>
</svg>
