<?xml version="1.0" encoding="utf-8" standalone="no"?>
<!DOCTYPE svg PUBLIC "-//W3C//DTD SVG 1.1//EN"
  "http://www.w3.org/Graphics/SVG/1.1/DTD/svg11.dtd">
<!-- Created with matplotlib (https://matplotlib.org/) -->
<svg height="288pt" version="1.1" viewBox="0 0 432 288" width="432pt" xmlns="http://www.w3.org/2000/svg" xmlns:xlink="http://www.w3.org/1999/xlink">
 <defs>
  <style type="text/css">
*{stroke-linecap:butt;stroke-linejoin:round;white-space:pre;}
  </style>
 </defs>
 <g id="figure_1">
  <g id="patch_1">
   <path d="M 0 288 
L 432 288 
L 432 0 
L 0 0 
z
" style="fill:#ffffff;"/>
  </g>
  <g id="axes_1">
   <g id="patch_2">
    <path d="M 54 252 
L 388.8 252 
L 388.8 34.56 
L 54 34.56 
z
" style="fill:#ffffff;"/>
   </g>
   <g id="matplotlib.axis_1">
    <g id="xtick_1">
     <g id="line2d_1">
      <defs>
       <path d="M 0 0 
L 0 3.5 
" id="mbedf02c7c5" style="stroke:#000000;stroke-width:0.8;"/>
      </defs>
      <g>
       <use style="stroke:#000000;stroke-width:0.8;" x="68.382018" xlink:href="#mbedf02c7c5" y="252"/>
      </g>
     </g>
     <g id="text_1">
      <!-- 0 -->
      <defs>
       <path d="M 31.78125 66.40625 
Q 24.171875 66.40625 20.328125 58.90625 
Q 16.5 51.421875 16.5 36.375 
Q 16.5 21.390625 20.328125 13.890625 
Q 24.171875 6.390625 31.78125 6.390625 
Q 39.453125 6.390625 43.28125 13.890625 
Q 47.125 21.390625 47.125 36.375 
Q 47.125 51.421875 43.28125 58.90625 
Q 39.453125 66.40625 31.78125 66.40625 
z
M 31.78125 74.21875 
Q 44.046875 74.21875 50.515625 64.515625 
Q 56.984375 54.828125 56.984375 36.375 
Q 56.984375 17.96875 50.515625 8.265625 
Q 44.046875 -1.421875 31.78125 -1.421875 
Q 19.53125 -1.421875 13.0625 8.265625 
Q 6.59375 17.96875 6.59375 36.375 
Q 6.59375 54.828125 13.0625 64.515625 
Q 19.53125 74.21875 31.78125 74.21875 
z
" id="DejaVuSans-48"/>
      </defs>
      <g transform="translate(65.200768 266.598437)scale(0.1 -0.1)">
       <use xlink:href="#DejaVuSans-48"/>
      </g>
     </g>
    </g>
    <g id="xtick_2">
     <g id="line2d_2">
      <g>
       <use style="stroke:#000000;stroke-width:0.8;" x="110.19021" xlink:href="#mbedf02c7c5" y="252"/>
      </g>
     </g>
     <g id="text_2">
      <!-- 50 -->
      <defs>
       <path d="M 10.796875 72.90625 
L 49.515625 72.90625 
L 49.515625 64.59375 
L 19.828125 64.59375 
L 19.828125 46.734375 
Q 21.96875 47.46875 24.109375 47.828125 
Q 26.265625 48.1875 28.421875 48.1875 
Q 40.625 48.1875 47.75 41.5 
Q 54.890625 34.8125 54.890625 23.390625 
Q 54.890625 11.625 47.5625 5.09375 
Q 40.234375 -1.421875 26.90625 -1.421875 
Q 22.3125 -1.421875 17.546875 -0.640625 
Q 12.796875 0.140625 7.71875 1.703125 
L 7.71875 11.625 
Q 12.109375 9.234375 16.796875 8.0625 
Q 21.484375 6.890625 26.703125 6.890625 
Q 35.15625 6.890625 40.078125 11.328125 
Q 45.015625 15.765625 45.015625 23.390625 
Q 45.015625 31 40.078125 35.4375 
Q 35.15625 39.890625 26.703125 39.890625 
Q 22.75 39.890625 18.8125 39.015625 
Q 14.890625 38.140625 10.796875 36.28125 
z
" id="DejaVuSans-53"/>
      </defs>
      <g transform="translate(103.82771 266.598437)scale(0.1 -0.1)">
       <use xlink:href="#DejaVuSans-53"/>
       <use x="63.623047" xlink:href="#DejaVuSans-48"/>
      </g>
     </g>
    </g>
    <g id="xtick_3">
     <g id="line2d_3">
      <g>
       <use style="stroke:#000000;stroke-width:0.8;" x="151.998402" xlink:href="#mbedf02c7c5" y="252"/>
      </g>
     </g>
     <g id="text_3">
      <!-- 100 -->
      <defs>
       <path d="M 12.40625 8.296875 
L 28.515625 8.296875 
L 28.515625 63.921875 
L 10.984375 60.40625 
L 10.984375 69.390625 
L 28.421875 72.90625 
L 38.28125 72.90625 
L 38.28125 8.296875 
L 54.390625 8.296875 
L 54.390625 0 
L 12.40625 0 
z
" id="DejaVuSans-49"/>
      </defs>
      <g transform="translate(142.454652 266.598437)scale(0.1 -0.1)">
       <use xlink:href="#DejaVuSans-49"/>
       <use x="63.623047" xlink:href="#DejaVuSans-48"/>
       <use x="127.246094" xlink:href="#DejaVuSans-48"/>
      </g>
     </g>
    </g>
    <g id="xtick_4">
     <g id="line2d_4">
      <g>
       <use style="stroke:#000000;stroke-width:0.8;" x="193.806593" xlink:href="#mbedf02c7c5" y="252"/>
      </g>
     </g>
     <g id="text_4">
      <!-- 150 -->
      <g transform="translate(184.262843 266.598437)scale(0.1 -0.1)">
       <use xlink:href="#DejaVuSans-49"/>
       <use x="63.623047" xlink:href="#DejaVuSans-53"/>
       <use x="127.246094" xlink:href="#DejaVuSans-48"/>
      </g>
     </g>
    </g>
    <g id="xtick_5">
     <g id="line2d_5">
      <g>
       <use style="stroke:#000000;stroke-width:0.8;" x="235.614785" xlink:href="#mbedf02c7c5" y="252"/>
      </g>
     </g>
     <g id="text_5">
      <!-- 200 -->
      <defs>
       <path d="M 19.1875 8.296875 
L 53.609375 8.296875 
L 53.609375 0 
L 7.328125 0 
L 7.328125 8.296875 
Q 12.9375 14.109375 22.625 23.890625 
Q 32.328125 33.6875 34.8125 36.53125 
Q 39.546875 41.84375 41.421875 45.53125 
Q 43.3125 49.21875 43.3125 52.78125 
Q 43.3125 58.59375 39.234375 62.25 
Q 35.15625 65.921875 28.609375 65.921875 
Q 23.96875 65.921875 18.8125 64.3125 
Q 13.671875 62.703125 7.8125 59.421875 
L 7.8125 69.390625 
Q 13.765625 71.78125 18.9375 73 
Q 24.125 74.21875 28.421875 74.21875 
Q 39.75 74.21875 46.484375 68.546875 
Q 53.21875 62.890625 53.21875 53.421875 
Q 53.21875 48.921875 51.53125 44.890625 
Q 49.859375 40.875 45.40625 35.40625 
Q 44.1875 33.984375 37.640625 27.21875 
Q 31.109375 20.453125 19.1875 8.296875 
z
" id="DejaVuSans-50"/>
      </defs>
      <g transform="translate(226.071035 266.598437)scale(0.1 -0.1)">
       <use xlink:href="#DejaVuSans-50"/>
       <use x="63.623047" xlink:href="#DejaVuSans-48"/>
       <use x="127.246094" xlink:href="#DejaVuSans-48"/>
      </g>
     </g>
    </g>
    <g id="xtick_6">
     <g id="line2d_6">
      <g>
       <use style="stroke:#000000;stroke-width:0.8;" x="277.422977" xlink:href="#mbedf02c7c5" y="252"/>
      </g>
     </g>
     <g id="text_6">
      <!-- 250 -->
      <g transform="translate(267.879227 266.598437)scale(0.1 -0.1)">
       <use xlink:href="#DejaVuSans-50"/>
       <use x="63.623047" xlink:href="#DejaVuSans-53"/>
       <use x="127.246094" xlink:href="#DejaVuSans-48"/>
      </g>
     </g>
    </g>
    <g id="xtick_7">
     <g id="line2d_7">
      <g>
       <use style="stroke:#000000;stroke-width:0.8;" x="319.231169" xlink:href="#mbedf02c7c5" y="252"/>
      </g>
     </g>
     <g id="text_7">
      <!-- 300 -->
      <defs>
       <path d="M 40.578125 39.3125 
Q 47.65625 37.796875 51.625 33 
Q 55.609375 28.21875 55.609375 21.1875 
Q 55.609375 10.40625 48.1875 4.484375 
Q 40.765625 -1.421875 27.09375 -1.421875 
Q 22.515625 -1.421875 17.65625 -0.515625 
Q 12.796875 0.390625 7.625 2.203125 
L 7.625 11.71875 
Q 11.71875 9.328125 16.59375 8.109375 
Q 21.484375 6.890625 26.8125 6.890625 
Q 36.078125 6.890625 40.9375 10.546875 
Q 45.796875 14.203125 45.796875 21.1875 
Q 45.796875 27.640625 41.28125 31.265625 
Q 36.765625 34.90625 28.71875 34.90625 
L 20.21875 34.90625 
L 20.21875 43.015625 
L 29.109375 43.015625 
Q 36.375 43.015625 40.234375 45.921875 
Q 44.09375 48.828125 44.09375 54.296875 
Q 44.09375 59.90625 40.109375 62.90625 
Q 36.140625 65.921875 28.71875 65.921875 
Q 24.65625 65.921875 20.015625 65.03125 
Q 15.375 64.15625 9.8125 62.3125 
L 9.8125 71.09375 
Q 15.4375 72.65625 20.34375 73.4375 
Q 25.25 74.21875 29.59375 74.21875 
Q 40.828125 74.21875 47.359375 69.109375 
Q 53.90625 64.015625 53.90625 55.328125 
Q 53.90625 49.265625 50.4375 45.09375 
Q 46.96875 40.921875 40.578125 39.3125 
z
" id="DejaVuSans-51"/>
      </defs>
      <g transform="translate(309.687419 266.598437)scale(0.1 -0.1)">
       <use xlink:href="#DejaVuSans-51"/>
       <use x="63.623047" xlink:href="#DejaVuSans-48"/>
       <use x="127.246094" xlink:href="#DejaVuSans-48"/>
      </g>
     </g>
    </g>
    <g id="xtick_8">
     <g id="line2d_8">
      <g>
       <use style="stroke:#000000;stroke-width:0.8;" x="361.039361" xlink:href="#mbedf02c7c5" y="252"/>
      </g>
     </g>
     <g id="text_8">
      <!-- 350 -->
      <g transform="translate(351.495611 266.598437)scale(0.1 -0.1)">
       <use xlink:href="#DejaVuSans-51"/>
       <use x="63.623047" xlink:href="#DejaVuSans-53"/>
       <use x="127.246094" xlink:href="#DejaVuSans-48"/>
      </g>
     </g>
    </g>
    <g id="text_9">
     <!-- Day of the year -->
     <defs>
      <path d="M 19.671875 64.796875 
L 19.671875 8.109375 
L 31.59375 8.109375 
Q 46.6875 8.109375 53.6875 14.9375 
Q 60.6875 21.78125 60.6875 36.53125 
Q 60.6875 51.171875 53.6875 57.984375 
Q 46.6875 64.796875 31.59375 64.796875 
z
M 9.8125 72.90625 
L 30.078125 72.90625 
Q 51.265625 72.90625 61.171875 64.09375 
Q 71.09375 55.28125 71.09375 36.53125 
Q 71.09375 17.671875 61.125 8.828125 
Q 51.171875 0 30.078125 0 
L 9.8125 0 
z
" id="DejaVuSans-68"/>
      <path d="M 34.28125 27.484375 
Q 23.390625 27.484375 19.1875 25 
Q 14.984375 22.515625 14.984375 16.5 
Q 14.984375 11.71875 18.140625 8.90625 
Q 21.296875 6.109375 26.703125 6.109375 
Q 34.1875 6.109375 38.703125 11.40625 
Q 43.21875 16.703125 43.21875 25.484375 
L 43.21875 27.484375 
z
M 52.203125 31.203125 
L 52.203125 0 
L 43.21875 0 
L 43.21875 8.296875 
Q 40.140625 3.328125 35.546875 0.953125 
Q 30.953125 -1.421875 24.3125 -1.421875 
Q 15.921875 -1.421875 10.953125 3.296875 
Q 6 8.015625 6 15.921875 
Q 6 25.140625 12.171875 29.828125 
Q 18.359375 34.515625 30.609375 34.515625 
L 43.21875 34.515625 
L 43.21875 35.40625 
Q 43.21875 41.609375 39.140625 45 
Q 35.0625 48.390625 27.6875 48.390625 
Q 23 48.390625 18.546875 47.265625 
Q 14.109375 46.140625 10.015625 43.890625 
L 10.015625 52.203125 
Q 14.9375 54.109375 19.578125 55.046875 
Q 24.21875 56 28.609375 56 
Q 40.484375 56 46.34375 49.84375 
Q 52.203125 43.703125 52.203125 31.203125 
z
" id="DejaVuSans-97"/>
      <path d="M 32.171875 -5.078125 
Q 28.375 -14.84375 24.75 -17.8125 
Q 21.140625 -20.796875 15.09375 -20.796875 
L 7.90625 -20.796875 
L 7.90625 -13.28125 
L 13.1875 -13.28125 
Q 16.890625 -13.28125 18.9375 -11.515625 
Q 21 -9.765625 23.484375 -3.21875 
L 25.09375 0.875 
L 2.984375 54.6875 
L 12.5 54.6875 
L 29.59375 11.921875 
L 46.6875 54.6875 
L 56.203125 54.6875 
z
" id="DejaVuSans-121"/>
      <path id="DejaVuSans-32"/>
      <path d="M 30.609375 48.390625 
Q 23.390625 48.390625 19.1875 42.75 
Q 14.984375 37.109375 14.984375 27.296875 
Q 14.984375 17.484375 19.15625 11.84375 
Q 23.34375 6.203125 30.609375 6.203125 
Q 37.796875 6.203125 41.984375 11.859375 
Q 46.1875 17.53125 46.1875 27.296875 
Q 46.1875 37.015625 41.984375 42.703125 
Q 37.796875 48.390625 30.609375 48.390625 
z
M 30.609375 56 
Q 42.328125 56 49.015625 48.375 
Q 55.71875 40.765625 55.71875 27.296875 
Q 55.71875 13.875 49.015625 6.21875 
Q 42.328125 -1.421875 30.609375 -1.421875 
Q 18.84375 -1.421875 12.171875 6.21875 
Q 5.515625 13.875 5.515625 27.296875 
Q 5.515625 40.765625 12.171875 48.375 
Q 18.84375 56 30.609375 56 
z
" id="DejaVuSans-111"/>
      <path d="M 37.109375 75.984375 
L 37.109375 68.5 
L 28.515625 68.5 
Q 23.6875 68.5 21.796875 66.546875 
Q 19.921875 64.59375 19.921875 59.515625 
L 19.921875 54.6875 
L 34.71875 54.6875 
L 34.71875 47.703125 
L 19.921875 47.703125 
L 19.921875 0 
L 10.890625 0 
L 10.890625 47.703125 
L 2.296875 47.703125 
L 2.296875 54.6875 
L 10.890625 54.6875 
L 10.890625 58.5 
Q 10.890625 67.625 15.140625 71.796875 
Q 19.390625 75.984375 28.609375 75.984375 
z
" id="DejaVuSans-102"/>
      <path d="M 18.3125 70.21875 
L 18.3125 54.6875 
L 36.8125 54.6875 
L 36.8125 47.703125 
L 18.3125 47.703125 
L 18.3125 18.015625 
Q 18.3125 11.328125 20.140625 9.421875 
Q 21.96875 7.515625 27.59375 7.515625 
L 36.8125 7.515625 
L 36.8125 0 
L 27.59375 0 
Q 17.1875 0 13.234375 3.875 
Q 9.28125 7.765625 9.28125 18.015625 
L 9.28125 47.703125 
L 2.6875 47.703125 
L 2.6875 54.6875 
L 9.28125 54.6875 
L 9.28125 70.21875 
z
" id="DejaVuSans-116"/>
      <path d="M 54.890625 33.015625 
L 54.890625 0 
L 45.90625 0 
L 45.90625 32.71875 
Q 45.90625 40.484375 42.875 44.328125 
Q 39.84375 48.1875 33.796875 48.1875 
Q 26.515625 48.1875 22.3125 43.546875 
Q 18.109375 38.921875 18.109375 30.90625 
L 18.109375 0 
L 9.078125 0 
L 9.078125 75.984375 
L 18.109375 75.984375 
L 18.109375 46.1875 
Q 21.34375 51.125 25.703125 53.5625 
Q 30.078125 56 35.796875 56 
Q 45.21875 56 50.046875 50.171875 
Q 54.890625 44.34375 54.890625 33.015625 
z
" id="DejaVuSans-104"/>
      <path d="M 56.203125 29.59375 
L 56.203125 25.203125 
L 14.890625 25.203125 
Q 15.484375 15.921875 20.484375 11.0625 
Q 25.484375 6.203125 34.421875 6.203125 
Q 39.59375 6.203125 44.453125 7.46875 
Q 49.3125 8.734375 54.109375 11.28125 
L 54.109375 2.78125 
Q 49.265625 0.734375 44.1875 -0.34375 
Q 39.109375 -1.421875 33.890625 -1.421875 
Q 20.796875 -1.421875 13.15625 6.1875 
Q 5.515625 13.8125 5.515625 26.8125 
Q 5.515625 40.234375 12.765625 48.109375 
Q 20.015625 56 32.328125 56 
Q 43.359375 56 49.78125 48.890625 
Q 56.203125 41.796875 56.203125 29.59375 
z
M 47.21875 32.234375 
Q 47.125 39.59375 43.09375 43.984375 
Q 39.0625 48.390625 32.421875 48.390625 
Q 24.90625 48.390625 20.390625 44.140625 
Q 15.875 39.890625 15.1875 32.171875 
z
" id="DejaVuSans-101"/>
      <path d="M 41.109375 46.296875 
Q 39.59375 47.171875 37.8125 47.578125 
Q 36.03125 48 33.890625 48 
Q 26.265625 48 22.1875 43.046875 
Q 18.109375 38.09375 18.109375 28.8125 
L 18.109375 0 
L 9.078125 0 
L 9.078125 54.6875 
L 18.109375 54.6875 
L 18.109375 46.1875 
Q 20.953125 51.171875 25.484375 53.578125 
Q 30.03125 56 36.53125 56 
Q 37.453125 56 38.578125 55.875 
Q 39.703125 55.765625 41.0625 55.515625 
z
" id="DejaVuSans-114"/>
     </defs>
     <g transform="translate(167.050469 283.315938)scale(0.14 -0.14)">
      <use xlink:href="#DejaVuSans-68"/>
      <use x="77.001953" xlink:href="#DejaVuSans-97"/>
      <use x="138.28125" xlink:href="#DejaVuSans-121"/>
      <use x="197.460938" xlink:href="#DejaVuSans-32"/>
      <use x="229.248047" xlink:href="#DejaVuSans-111"/>
      <use x="290.429688" xlink:href="#DejaVuSans-102"/>
      <use x="325.634766" xlink:href="#DejaVuSans-32"/>
      <use x="357.421875" xlink:href="#DejaVuSans-116"/>
      <use x="396.630859" xlink:href="#DejaVuSans-104"/>
      <use x="460.009766" xlink:href="#DejaVuSans-101"/>
      <use x="521.533203" xlink:href="#DejaVuSans-32"/>
      <use x="553.320312" xlink:href="#DejaVuSans-121"/>
      <use x="612.5" xlink:href="#DejaVuSans-101"/>
      <use x="674.023438" xlink:href="#DejaVuSans-97"/>
      <use x="735.302734" xlink:href="#DejaVuSans-114"/>
     </g>
    </g>
   </g>
   <g id="matplotlib.axis_2">
    <g id="ytick_1">
     <g id="line2d_9">
      <defs>
       <path d="M 0 0 
L -3.5 0 
" id="mf534060f94" style="stroke:#000000;stroke-width:0.8;"/>
      </defs>
      <g>
       <use style="stroke:#000000;stroke-width:0.8;" x="54" xlink:href="#mf534060f94" y="230.590634"/>
      </g>
     </g>
     <g id="text_10">
      <!-- 1000 -->
      <g transform="translate(21.55 234.389852)scale(0.1 -0.1)">
       <use xlink:href="#DejaVuSans-49"/>
       <use x="63.623047" xlink:href="#DejaVuSans-48"/>
       <use x="127.246094" xlink:href="#DejaVuSans-48"/>
       <use x="190.869141" xlink:href="#DejaVuSans-48"/>
      </g>
     </g>
    </g>
    <g id="ytick_2">
     <g id="line2d_10">
      <g>
       <use style="stroke:#000000;stroke-width:0.8;" x="54" xlink:href="#mf534060f94" y="205.856702"/>
      </g>
     </g>
     <g id="text_11">
      <!-- 1500 -->
      <g transform="translate(21.55 209.655921)scale(0.1 -0.1)">
       <use xlink:href="#DejaVuSans-49"/>
       <use x="63.623047" xlink:href="#DejaVuSans-53"/>
       <use x="127.246094" xlink:href="#DejaVuSans-48"/>
       <use x="190.869141" xlink:href="#DejaVuSans-48"/>
      </g>
     </g>
    </g>
    <g id="ytick_3">
     <g id="line2d_11">
      <g>
       <use style="stroke:#000000;stroke-width:0.8;" x="54" xlink:href="#mf534060f94" y="181.122771"/>
      </g>
     </g>
     <g id="text_12">
      <!-- 2000 -->
      <g transform="translate(21.55 184.92199)scale(0.1 -0.1)">
       <use xlink:href="#DejaVuSans-50"/>
       <use x="63.623047" xlink:href="#DejaVuSans-48"/>
       <use x="127.246094" xlink:href="#DejaVuSans-48"/>
       <use x="190.869141" xlink:href="#DejaVuSans-48"/>
      </g>
     </g>
    </g>
    <g id="ytick_4">
     <g id="line2d_12">
      <g>
       <use style="stroke:#000000;stroke-width:0.8;" x="54" xlink:href="#mf534060f94" y="156.38884"/>
      </g>
     </g>
     <g id="text_13">
      <!-- 2500 -->
      <g transform="translate(21.55 160.188059)scale(0.1 -0.1)">
       <use xlink:href="#DejaVuSans-50"/>
       <use x="63.623047" xlink:href="#DejaVuSans-53"/>
       <use x="127.246094" xlink:href="#DejaVuSans-48"/>
       <use x="190.869141" xlink:href="#DejaVuSans-48"/>
      </g>
     </g>
    </g>
    <g id="ytick_5">
     <g id="line2d_13">
      <g>
       <use style="stroke:#000000;stroke-width:0.8;" x="54" xlink:href="#mf534060f94" y="131.654909"/>
      </g>
     </g>
     <g id="text_14">
      <!-- 3000 -->
      <g transform="translate(21.55 135.454128)scale(0.1 -0.1)">
       <use xlink:href="#DejaVuSans-51"/>
       <use x="63.623047" xlink:href="#DejaVuSans-48"/>
       <use x="127.246094" xlink:href="#DejaVuSans-48"/>
       <use x="190.869141" xlink:href="#DejaVuSans-48"/>
      </g>
     </g>
    </g>
    <g id="ytick_6">
     <g id="line2d_14">
      <g>
       <use style="stroke:#000000;stroke-width:0.8;" x="54" xlink:href="#mf534060f94" y="106.920978"/>
      </g>
     </g>
     <g id="text_15">
      <!-- 3500 -->
      <g transform="translate(21.55 110.720196)scale(0.1 -0.1)">
       <use xlink:href="#DejaVuSans-51"/>
       <use x="63.623047" xlink:href="#DejaVuSans-53"/>
       <use x="127.246094" xlink:href="#DejaVuSans-48"/>
       <use x="190.869141" xlink:href="#DejaVuSans-48"/>
      </g>
     </g>
    </g>
    <g id="ytick_7">
     <g id="line2d_15">
      <g>
       <use style="stroke:#000000;stroke-width:0.8;" x="54" xlink:href="#mf534060f94" y="82.187046"/>
      </g>
     </g>
     <g id="text_16">
      <!-- 4000 -->
      <defs>
       <path d="M 37.796875 64.3125 
L 12.890625 25.390625 
L 37.796875 25.390625 
z
M 35.203125 72.90625 
L 47.609375 72.90625 
L 47.609375 25.390625 
L 58.015625 25.390625 
L 58.015625 17.1875 
L 47.609375 17.1875 
L 47.609375 0 
L 37.796875 0 
L 37.796875 17.1875 
L 4.890625 17.1875 
L 4.890625 26.703125 
z
" id="DejaVuSans-52"/>
      </defs>
      <g transform="translate(21.55 85.986265)scale(0.1 -0.1)">
       <use xlink:href="#DejaVuSans-52"/>
       <use x="63.623047" xlink:href="#DejaVuSans-48"/>
       <use x="127.246094" xlink:href="#DejaVuSans-48"/>
       <use x="190.869141" xlink:href="#DejaVuSans-48"/>
      </g>
     </g>
    </g>
    <g id="ytick_8">
     <g id="line2d_16">
      <g>
       <use style="stroke:#000000;stroke-width:0.8;" x="54" xlink:href="#mf534060f94" y="57.453115"/>
      </g>
     </g>
     <g id="text_17">
      <!-- 4500 -->
      <g transform="translate(21.55 61.252334)scale(0.1 -0.1)">
       <use xlink:href="#DejaVuSans-52"/>
       <use x="63.623047" xlink:href="#DejaVuSans-53"/>
       <use x="127.246094" xlink:href="#DejaVuSans-48"/>
       <use x="190.869141" xlink:href="#DejaVuSans-48"/>
      </g>
     </g>
    </g>
    <g id="text_18">
     <!-- EVI -->
     <defs>
      <path d="M 9.8125 72.90625 
L 55.90625 72.90625 
L 55.90625 64.59375 
L 19.671875 64.59375 
L 19.671875 43.015625 
L 54.390625 43.015625 
L 54.390625 34.71875 
L 19.671875 34.71875 
L 19.671875 8.296875 
L 56.78125 8.296875 
L 56.78125 0 
L 9.8125 0 
z
" id="DejaVuSans-69"/>
      <path d="M 28.609375 0 
L 0.78125 72.90625 
L 11.078125 72.90625 
L 34.1875 11.53125 
L 57.328125 72.90625 
L 67.578125 72.90625 
L 39.796875 0 
z
" id="DejaVuSans-86"/>
      <path d="M 9.8125 72.90625 
L 19.671875 72.90625 
L 19.671875 0 
L 9.8125 0 
z
" id="DejaVuSans-73"/>
     </defs>
     <g transform="translate(14.638437 154.556563)rotate(-90)scale(0.14 -0.14)">
      <use xlink:href="#DejaVuSans-69"/>
      <use x="63.183594" xlink:href="#DejaVuSans-86"/>
      <use x="131.591797" xlink:href="#DejaVuSans-73"/>
     </g>
    </g>
   </g>
   <g id="line2d_17">
    <defs>
     <path d="M 0 5 
C 1.326016 5 2.597899 4.473168 3.535534 3.535534 
C 4.473168 2.597899 5 1.326016 5 0 
C 5 -1.326016 4.473168 -2.597899 3.535534 -3.535534 
C 2.597899 -4.473168 1.326016 -5 0 -5 
C -1.326016 -5 -2.597899 -4.473168 -3.535534 -3.535534 
C -4.473168 -2.597899 -5 -1.326016 -5 0 
C -5 1.326016 -4.473168 2.597899 -3.535534 3.535534 
C -2.597899 4.473168 -1.326016 5 0 5 
z
" id="m9bd9aaa042" style="stroke:#1f77b4;"/>
    </defs>
    <g clip-path="url(#pcee42c665b)">
     <use style="fill:#1f77b4;stroke:#1f77b4;" x="139.455944" xlink:href="#m9bd9aaa042" y="194.713427"/>
     <use style="fill:#1f77b4;stroke:#1f77b4;" x="148.653746" xlink:href="#m9bd9aaa042" y="186.402504"/>
     <use style="fill:#1f77b4;stroke:#1f77b4;" x="157.015385" xlink:href="#m9bd9aaa042" y="183.804491"/>
     <use style="fill:#1f77b4;stroke:#1f77b4;" x="182.1003" xlink:href="#m9bd9aaa042" y="137.700592"/>
     <use style="fill:#1f77b4;stroke:#1f77b4;" x="214.710689" xlink:href="#m9bd9aaa042" y="95.738553"/>
     <use style="fill:#1f77b4;stroke:#1f77b4;" x="232.27013" xlink:href="#m9bd9aaa042" y="103.565115"/>
     <use style="fill:#1f77b4;stroke:#1f77b4;" x="239.795604" xlink:href="#m9bd9aaa042" y="93.219987"/>
     <use style="fill:#1f77b4;stroke:#1f77b4;" x="248.157243" xlink:href="#m9bd9aaa042" y="101.87218"/>
     <use style="fill:#1f77b4;stroke:#1f77b4;" x="257.355045" xlink:href="#m9bd9aaa042" y="104.348526"/>
     <use style="fill:#1f77b4;stroke:#1f77b4;" x="264.880519" xlink:href="#m9bd9aaa042" y="110.112421"/>
     <use style="fill:#1f77b4;stroke:#1f77b4;" x="273.242158" xlink:href="#m9bd9aaa042" y="120.182786"/>
     <use style="fill:#1f77b4;stroke:#1f77b4;" x="282.43996" xlink:href="#m9bd9aaa042" y="120.696822"/>
     <use style="fill:#1f77b4;stroke:#1f77b4;" x="289.965435" xlink:href="#m9bd9aaa042" y="117.998726"/>
     <use style="fill:#1f77b4;stroke:#1f77b4;" x="307.524875" xlink:href="#m9bd9aaa042" y="138.32394"/>
     <use style="fill:#1f77b4;stroke:#1f77b4;" x="340.971429" xlink:href="#m9bd9aaa042" y="205.121856"/>
     <use style="fill:#1f77b4;stroke:#1f77b4;" x="348.496903" xlink:href="#m9bd9aaa042" y="207.695855"/>
     <use style="fill:#1f77b4;stroke:#1f77b4;" x="366.056344" xlink:href="#m9bd9aaa042" y="224.879199"/>
    </g>
   </g>
   <g id="line2d_18">
    <defs>
     <path d="M 0 5 
C 1.326016 5 2.597899 4.473168 3.535534 3.535534 
C 4.473168 2.597899 5 1.326016 5 0 
C 5 -1.326016 4.473168 -2.597899 3.535534 -3.535534 
C 2.597899 -4.473168 1.326016 -5 0 -5 
C -1.326016 -5 -2.597899 -4.473168 -3.535534 -3.535534 
C -4.473168 -2.597899 -5 -1.326016 -5 0 
C -5 1.326016 -4.473168 2.597899 -3.535534 3.535534 
C -2.597899 4.473168 -1.326016 5 0 5 
z
" id="m28257a88ca" style="stroke:#ff7f0e;"/>
    </defs>
    <g clip-path="url(#pcee42c665b)">
     <use style="fill:#ff7f0e;stroke:#ff7f0e;" x="118.551848" xlink:href="#m28257a88ca" y="224.977331"/>
     <use style="fill:#ff7f0e;stroke:#ff7f0e;" x="126.913487" xlink:href="#m28257a88ca" y="209.619974"/>
     <use style="fill:#ff7f0e;stroke:#ff7f0e;" x="143.636763" xlink:href="#m28257a88ca" y="201.627068"/>
     <use style="fill:#ff7f0e;stroke:#ff7f0e;" x="160.36004" xlink:href="#m28257a88ca" y="168.905279"/>
     <use style="fill:#ff7f0e;stroke:#ff7f0e;" x="168.721678" xlink:href="#m28257a88ca" y="138.573437"/>
     <use style="fill:#ff7f0e;stroke:#ff7f0e;" x="177.083317" xlink:href="#m28257a88ca" y="116.157742"/>
     <use style="fill:#ff7f0e;stroke:#ff7f0e;" x="185.444955" xlink:href="#m28257a88ca" y="129.518199"/>
     <use style="fill:#ff7f0e;stroke:#ff7f0e;" x="210.52987" xlink:href="#m28257a88ca" y="98.198611"/>
     <use style="fill:#ff7f0e;stroke:#ff7f0e;" x="218.891508" xlink:href="#m28257a88ca" y="78.638883"/>
     <use style="fill:#ff7f0e;stroke:#ff7f0e;" x="223.072328" xlink:href="#m28257a88ca" y="94.960574"/>
     <use style="fill:#ff7f0e;stroke:#ff7f0e;" x="227.253147" xlink:href="#m28257a88ca" y="80.424188"/>
     <use style="fill:#ff7f0e;stroke:#ff7f0e;" x="231.433966" xlink:href="#m28257a88ca" y="44.443636"/>
     <use style="fill:#ff7f0e;stroke:#ff7f0e;" x="239.795604" xlink:href="#m28257a88ca" y="57.786368"/>
     <use style="fill:#ff7f0e;stroke:#ff7f0e;" x="243.976424" xlink:href="#m28257a88ca" y="65.831646"/>
     <use style="fill:#ff7f0e;stroke:#ff7f0e;" x="252.338062" xlink:href="#m28257a88ca" y="67.900958"/>
     <use style="fill:#ff7f0e;stroke:#ff7f0e;" x="256.518881" xlink:href="#m28257a88ca" y="62.010797"/>
     <use style="fill:#ff7f0e;stroke:#ff7f0e;" x="260.6997" xlink:href="#m28257a88ca" y="83.056513"/>
     <use style="fill:#ff7f0e;stroke:#ff7f0e;" x="264.880519" xlink:href="#m28257a88ca" y="67.773401"/>
     <use style="fill:#ff7f0e;stroke:#ff7f0e;" x="273.242158" xlink:href="#m28257a88ca" y="93.125914"/>
     <use style="fill:#ff7f0e;stroke:#ff7f0e;" x="285.784615" xlink:href="#m28257a88ca" y="93.584374"/>
     <use style="fill:#ff7f0e;stroke:#ff7f0e;" x="289.965435" xlink:href="#m28257a88ca" y="99.236888"/>
     <use style="fill:#ff7f0e;stroke:#ff7f0e;" x="294.146254" xlink:href="#m28257a88ca" y="114.568419"/>
     <use style="fill:#ff7f0e;stroke:#ff7f0e;" x="298.327073" xlink:href="#m28257a88ca" y="128.220007"/>
     <use style="fill:#ff7f0e;stroke:#ff7f0e;" x="302.507892" xlink:href="#m28257a88ca" y="111.80923"/>
     <use style="fill:#ff7f0e;stroke:#ff7f0e;" x="306.688711" xlink:href="#m28257a88ca" y="134.410615"/>
     <use style="fill:#ff7f0e;stroke:#ff7f0e;" x="315.05035" xlink:href="#m28257a88ca" y="124.499421"/>
     <use style="fill:#ff7f0e;stroke:#ff7f0e;" x="319.231169" xlink:href="#m28257a88ca" y="143.219298"/>
     <use style="fill:#ff7f0e;stroke:#ff7f0e;" x="323.411988" xlink:href="#m28257a88ca" y="156.751454"/>
     <use style="fill:#ff7f0e;stroke:#ff7f0e;" x="340.135265" xlink:href="#m28257a88ca" y="194.258557"/>
     <use style="fill:#ff7f0e;stroke:#ff7f0e;" x="352.677722" xlink:href="#m28257a88ca" y="207.542655"/>
     <use style="fill:#ff7f0e;stroke:#ff7f0e;" x="356.858541" xlink:href="#m28257a88ca" y="194.891209"/>
     <use style="fill:#ff7f0e;stroke:#ff7f0e;" x="360.203197" xlink:href="#m28257a88ca" y="218.058827"/>
     <use style="fill:#ff7f0e;stroke:#ff7f0e;" x="365.22018" xlink:href="#m28257a88ca" y="216.800491"/>
     <use style="fill:#ff7f0e;stroke:#ff7f0e;" x="369.400999" xlink:href="#m28257a88ca" y="209.307915"/>
    </g>
   </g>
   <g id="line2d_19">
    <defs>
     <path d="M 0 5 
C 1.326016 5 2.597899 4.473168 3.535534 3.535534 
C 4.473168 2.597899 5 1.326016 5 0 
C 5 -1.326016 4.473168 -2.597899 3.535534 -3.535534 
C 2.597899 -4.473168 1.326016 -5 0 -5 
C -1.326016 -5 -2.597899 -4.473168 -3.535534 -3.535534 
C -4.473168 -2.597899 -5 -1.326016 -5 0 
C -5 1.326016 -4.473168 2.597899 -3.535534 3.535534 
C -2.597899 4.473168 -1.326016 5 0 5 
z
" id="m8781af428b" style="stroke:#2ca02c;"/>
    </defs>
    <g clip-path="url(#pcee42c665b)">
     <use style="fill:#2ca02c;stroke:#2ca02c;" x="85.941459" xlink:href="#m8781af428b" y="226.246789"/>
     <use style="fill:#2ca02c;stroke:#2ca02c;" x="89.286114" xlink:href="#m8781af428b" y="230.35349"/>
     <use style="fill:#2ca02c;stroke:#2ca02c;" x="101.828571" xlink:href="#m8781af428b" y="229.636293"/>
     <use style="fill:#2ca02c;stroke:#2ca02c;" x="111.026374" xlink:href="#m8781af428b" y="227.57007"/>
     <use style="fill:#2ca02c;stroke:#2ca02c;" x="122.732667" xlink:href="#m8781af428b" y="227.466512"/>
     <use style="fill:#2ca02c;stroke:#2ca02c;" x="126.913487" xlink:href="#m8781af428b" y="229.282597"/>
     <use style="fill:#2ca02c;stroke:#2ca02c;" x="139.455944" xlink:href="#m8781af428b" y="241.313991"/>
     <use style="fill:#2ca02c;stroke:#2ca02c;" x="160.36004" xlink:href="#m8781af428b" y="207.789663"/>
     <use style="fill:#2ca02c;stroke:#2ca02c;" x="164.540859" xlink:href="#m8781af428b" y="221.136155"/>
     <use style="fill:#2ca02c;stroke:#2ca02c;" x="168.721678" xlink:href="#m8781af428b" y="177.779394"/>
     <use style="fill:#2ca02c;stroke:#2ca02c;" x="181.264136" xlink:href="#m8781af428b" y="167.461192"/>
     <use style="fill:#2ca02c;stroke:#2ca02c;" x="185.444955" xlink:href="#m8781af428b" y="150.550368"/>
     <use style="fill:#2ca02c;stroke:#2ca02c;" x="197.987413" xlink:href="#m8781af428b" y="117.372042"/>
     <use style="fill:#2ca02c;stroke:#2ca02c;" x="202.168232" xlink:href="#m8781af428b" y="130.381827"/>
     <use style="fill:#2ca02c;stroke:#2ca02c;" x="206.349051" xlink:href="#m8781af428b" y="109.683203"/>
     <use style="fill:#2ca02c;stroke:#2ca02c;" x="210.52987" xlink:href="#m8781af428b" y="104.039322"/>
     <use style="fill:#2ca02c;stroke:#2ca02c;" x="214.710689" xlink:href="#m8781af428b" y="80.792053"/>
     <use style="fill:#2ca02c;stroke:#2ca02c;" x="218.891508" xlink:href="#m8781af428b" y="82.455189"/>
     <use style="fill:#2ca02c;stroke:#2ca02c;" x="223.072328" xlink:href="#m8781af428b" y="72.309788"/>
     <use style="fill:#2ca02c;stroke:#2ca02c;" x="227.253147" xlink:href="#m8781af428b" y="91.190531"/>
     <use style="fill:#2ca02c;stroke:#2ca02c;" x="231.433966" xlink:href="#m8781af428b" y="65.022879"/>
     <use style="fill:#2ca02c;stroke:#2ca02c;" x="235.614785" xlink:href="#m8781af428b" y="83.640346"/>
     <use style="fill:#2ca02c;stroke:#2ca02c;" x="239.795604" xlink:href="#m8781af428b" y="67.3623"/>
     <use style="fill:#2ca02c;stroke:#2ca02c;" x="243.976424" xlink:href="#m8781af428b" y="67.068644"/>
     <use style="fill:#2ca02c;stroke:#2ca02c;" x="248.157243" xlink:href="#m8781af428b" y="70.73573"/>
     <use style="fill:#2ca02c;stroke:#2ca02c;" x="252.338062" xlink:href="#m8781af428b" y="102.117409"/>
     <use style="fill:#2ca02c;stroke:#2ca02c;" x="256.518881" xlink:href="#m8781af428b" y="61.403712"/>
     <use style="fill:#2ca02c;stroke:#2ca02c;" x="260.6997" xlink:href="#m8781af428b" y="94.680973"/>
     <use style="fill:#2ca02c;stroke:#2ca02c;" x="264.880519" xlink:href="#m8781af428b" y="74.769918"/>
     <use style="fill:#2ca02c;stroke:#2ca02c;" x="273.242158" xlink:href="#m8781af428b" y="83.793606"/>
     <use style="fill:#2ca02c;stroke:#2ca02c;" x="277.422977" xlink:href="#m8781af428b" y="94.672205"/>
     <use style="fill:#2ca02c;stroke:#2ca02c;" x="285.784615" xlink:href="#m8781af428b" y="108.535581"/>
     <use style="fill:#2ca02c;stroke:#2ca02c;" x="289.965435" xlink:href="#m8781af428b" y="102.28363"/>
     <use style="fill:#2ca02c;stroke:#2ca02c;" x="294.146254" xlink:href="#m8781af428b" y="114.444409"/>
     <use style="fill:#2ca02c;stroke:#2ca02c;" x="302.507892" xlink:href="#m8781af428b" y="167.815916"/>
     <use style="fill:#2ca02c;stroke:#2ca02c;" x="306.688711" xlink:href="#m8781af428b" y="118.387864"/>
     <use style="fill:#2ca02c;stroke:#2ca02c;" x="310.86953" xlink:href="#m8781af428b" y="134.792698"/>
     <use style="fill:#2ca02c;stroke:#2ca02c;" x="315.05035" xlink:href="#m8781af428b" y="122.189793"/>
     <use style="fill:#2ca02c;stroke:#2ca02c;" x="323.411988" xlink:href="#m8781af428b" y="185.377007"/>
     <use style="fill:#2ca02c;stroke:#2ca02c;" x="327.592807" xlink:href="#m8781af428b" y="142.720683"/>
     <use style="fill:#2ca02c;stroke:#2ca02c;" x="331.773626" xlink:href="#m8781af428b" y="156.689149"/>
     <use style="fill:#2ca02c;stroke:#2ca02c;" x="335.954446" xlink:href="#m8781af428b" y="182.626767"/>
     <use style="fill:#2ca02c;stroke:#2ca02c;" x="352.677722" xlink:href="#m8781af428b" y="211.562825"/>
     <use style="fill:#2ca02c;stroke:#2ca02c;" x="356.858541" xlink:href="#m8781af428b" y="215.232685"/>
     <use style="fill:#2ca02c;stroke:#2ca02c;" x="369.400999" xlink:href="#m8781af428b" y="225.865736"/>
     <use style="fill:#2ca02c;stroke:#2ca02c;" x="372.745654" xlink:href="#m8781af428b" y="230.852332"/>
    </g>
   </g>
   <g id="line2d_20">
    <defs>
     <path d="M 0 5 
C 1.326016 5 2.597899 4.473168 3.535534 3.535534 
C 4.473168 2.597899 5 1.326016 5 0 
C 5 -1.326016 4.473168 -2.597899 3.535534 -3.535534 
C 2.597899 -4.473168 1.326016 -5 0 -5 
C -1.326016 -5 -2.597899 -4.473168 -3.535534 -3.535534 
C -4.473168 -2.597899 -5 -1.326016 -5 0 
C -5 1.326016 -4.473168 2.597899 -3.535534 3.535534 
C -2.597899 4.473168 -1.326016 5 0 5 
z
" id="m40ab09a318" style="stroke:#d62728;"/>
    </defs>
    <g clip-path="url(#pcee42c665b)">
     <use style="fill:#d62728;stroke:#d62728;" x="111.026374" xlink:href="#m40ab09a318" y="242.116364"/>
     <use style="fill:#d62728;stroke:#d62728;" x="126.913487" xlink:href="#m40ab09a318" y="231.420407"/>
     <use style="fill:#d62728;stroke:#d62728;" x="131.094306" xlink:href="#m40ab09a318" y="237.862013"/>
     <use style="fill:#d62728;stroke:#d62728;" x="135.275125" xlink:href="#m40ab09a318" y="230.266728"/>
     <use style="fill:#d62728;stroke:#d62728;" x="143.636763" xlink:href="#m40ab09a318" y="231.430201"/>
     <use style="fill:#d62728;stroke:#d62728;" x="151.998402" xlink:href="#m40ab09a318" y="213.063894"/>
     <use style="fill:#d62728;stroke:#d62728;" x="160.36004" xlink:href="#m40ab09a318" y="197.868245"/>
     <use style="fill:#d62728;stroke:#d62728;" x="164.540859" xlink:href="#m40ab09a318" y="193.300941"/>
     <use style="fill:#d62728;stroke:#d62728;" x="168.721678" xlink:href="#m40ab09a318" y="192.726541"/>
     <use style="fill:#d62728;stroke:#d62728;" x="172.902498" xlink:href="#m40ab09a318" y="161.449955"/>
    </g>
   </g>
   <g id="line2d_21">
    <path clip-path="url(#pcee42c665b)" d="M 69.218182 228.745524 
L 75.907493 228.745524 
L 82.596803 228.745524 
L 89.286114 228.745524 
L 95.975425 228.980774 
L 102.664735 229.543069 
L 109.354046 232.394674 
L 116.043357 231.531575 
L 122.732667 220.687939 
L 129.421978 230.703614 
L 136.111289 224.966571 
L 142.800599 211.732358 
L 150.326074 206.94662 
L 157.015385 193.537636 
L 163.704695 205.067695 
L 170.394006 169.10241 
L 177.083317 148.356296 
L 183.772627 142.074857 
L 190.461938 133.223178 
L 197.151249 125.178899 
L 203.840559 115.181652 
L 210.52987 99.325495 
L 217.219181 82.399823 
L 224.744655 82.062178 
L 231.433966 71.010543 
L 238.123277 76.774562 
L 244.812587 78.584429 
L 251.501898 80.235017 
L 258.191209 85.709356 
L 264.880519 87.575368 
L 271.56983 94.336038 
L 278.259141 100.264809 
L 284.948452 106.450311 
L 291.637762 107.390648 
L 299.163237 121.715982 
L 305.852547 139.766223 
L 312.541858 130.387467 
L 319.231169 139.547235 
L 325.92048 154.871604 
L 332.60979 170.195973 
L 339.299101 190.773546 
L 345.988412 205.310778 
L 352.677722 204.665563 
L 359.367033 214.871561 
L 366.056344 216.995869 
L 373.581818 222.008661 
" style="fill:none;stroke:#000000;stroke-linecap:square;stroke-width:1.5;"/>
   </g>
   <g id="patch_3">
    <path d="M 54 252 
L 54 34.56 
" style="fill:none;stroke:#000000;stroke-linecap:square;stroke-linejoin:miter;stroke-width:0.8;"/>
   </g>
   <g id="patch_4">
    <path d="M 388.8 252 
L 388.8 34.56 
" style="fill:none;stroke:#000000;stroke-linecap:square;stroke-linejoin:miter;stroke-width:0.8;"/>
   </g>
   <g id="patch_5">
    <path d="M 54 252 
L 388.8 252 
" style="fill:none;stroke:#000000;stroke-linecap:square;stroke-linejoin:miter;stroke-width:0.8;"/>
   </g>
   <g id="patch_6">
    <path d="M 54 34.56 
L 388.8 34.56 
" style="fill:none;stroke:#000000;stroke-linecap:square;stroke-linejoin:miter;stroke-width:0.8;"/>
   </g>
   <g id="legend_1">
    <g id="patch_7">
     <path d="M 324.35 101.2725 
L 381.8 101.2725 
Q 383.8 101.2725 383.8 99.2725 
L 383.8 41.56 
Q 383.8 39.56 381.8 39.56 
L 324.35 39.56 
Q 322.35 39.56 322.35 41.56 
L 322.35 99.2725 
Q 322.35 101.2725 324.35 101.2725 
z
" style="fill:#ffffff;opacity:0.8;stroke:#cccccc;stroke-linejoin:miter;"/>
    </g>
    <g id="line2d_22"/>
    <g id="line2d_23">
     <g>
      <use style="fill:#1f77b4;stroke:#1f77b4;" x="336.35" xlink:href="#m9bd9aaa042" y="47.658437"/>
     </g>
    </g>
    <g id="text_19">
     <!-- 2016 -->
     <defs>
      <path d="M 33.015625 40.375 
Q 26.375 40.375 22.484375 35.828125 
Q 18.609375 31.296875 18.609375 23.390625 
Q 18.609375 15.53125 22.484375 10.953125 
Q 26.375 6.390625 33.015625 6.390625 
Q 39.65625 6.390625 43.53125 10.953125 
Q 47.40625 15.53125 47.40625 23.390625 
Q 47.40625 31.296875 43.53125 35.828125 
Q 39.65625 40.375 33.015625 40.375 
z
M 52.59375 71.296875 
L 52.59375 62.3125 
Q 48.875 64.0625 45.09375 64.984375 
Q 41.3125 65.921875 37.59375 65.921875 
Q 27.828125 65.921875 22.671875 59.328125 
Q 17.53125 52.734375 16.796875 39.40625 
Q 19.671875 43.65625 24.015625 45.921875 
Q 28.375 48.1875 33.59375 48.1875 
Q 44.578125 48.1875 50.953125 41.515625 
Q 57.328125 34.859375 57.328125 23.390625 
Q 57.328125 12.15625 50.6875 5.359375 
Q 44.046875 -1.421875 33.015625 -1.421875 
Q 20.359375 -1.421875 13.671875 8.265625 
Q 6.984375 17.96875 6.984375 36.375 
Q 6.984375 53.65625 15.1875 63.9375 
Q 23.390625 74.21875 37.203125 74.21875 
Q 40.921875 74.21875 44.703125 73.484375 
Q 48.484375 72.75 52.59375 71.296875 
z
" id="DejaVuSans-54"/>
     </defs>
     <g transform="translate(354.35 51.158437)scale(0.1 -0.1)">
      <use xlink:href="#DejaVuSans-50"/>
      <use x="63.623047" xlink:href="#DejaVuSans-48"/>
      <use x="127.246094" xlink:href="#DejaVuSans-49"/>
      <use x="190.869141" xlink:href="#DejaVuSans-54"/>
     </g>
    </g>
    <g id="line2d_24"/>
    <g id="line2d_25">
     <g>
      <use style="fill:#ff7f0e;stroke:#ff7f0e;" x="336.35" xlink:href="#m28257a88ca" y="62.336562"/>
     </g>
    </g>
    <g id="text_20">
     <!-- 2017 -->
     <defs>
      <path d="M 8.203125 72.90625 
L 55.078125 72.90625 
L 55.078125 68.703125 
L 28.609375 0 
L 18.3125 0 
L 43.21875 64.59375 
L 8.203125 64.59375 
z
" id="DejaVuSans-55"/>
     </defs>
     <g transform="translate(354.35 65.836562)scale(0.1 -0.1)">
      <use xlink:href="#DejaVuSans-50"/>
      <use x="63.623047" xlink:href="#DejaVuSans-48"/>
      <use x="127.246094" xlink:href="#DejaVuSans-49"/>
      <use x="190.869141" xlink:href="#DejaVuSans-55"/>
     </g>
    </g>
    <g id="line2d_26"/>
    <g id="line2d_27">
     <g>
      <use style="fill:#2ca02c;stroke:#2ca02c;" x="336.35" xlink:href="#m8781af428b" y="77.014687"/>
     </g>
    </g>
    <g id="text_21">
     <!-- 2018 -->
     <defs>
      <path d="M 31.78125 34.625 
Q 24.75 34.625 20.71875 30.859375 
Q 16.703125 27.09375 16.703125 20.515625 
Q 16.703125 13.921875 20.71875 10.15625 
Q 24.75 6.390625 31.78125 6.390625 
Q 38.8125 6.390625 42.859375 10.171875 
Q 46.921875 13.96875 46.921875 20.515625 
Q 46.921875 27.09375 42.890625 30.859375 
Q 38.875 34.625 31.78125 34.625 
z
M 21.921875 38.8125 
Q 15.578125 40.375 12.03125 44.71875 
Q 8.5 49.078125 8.5 55.328125 
Q 8.5 64.0625 14.71875 69.140625 
Q 20.953125 74.21875 31.78125 74.21875 
Q 42.671875 74.21875 48.875 69.140625 
Q 55.078125 64.0625 55.078125 55.328125 
Q 55.078125 49.078125 51.53125 44.71875 
Q 48 40.375 41.703125 38.8125 
Q 48.828125 37.15625 52.796875 32.3125 
Q 56.78125 27.484375 56.78125 20.515625 
Q 56.78125 9.90625 50.3125 4.234375 
Q 43.84375 -1.421875 31.78125 -1.421875 
Q 19.734375 -1.421875 13.25 4.234375 
Q 6.78125 9.90625 6.78125 20.515625 
Q 6.78125 27.484375 10.78125 32.3125 
Q 14.796875 37.15625 21.921875 38.8125 
z
M 18.3125 54.390625 
Q 18.3125 48.734375 21.84375 45.5625 
Q 25.390625 42.390625 31.78125 42.390625 
Q 38.140625 42.390625 41.71875 45.5625 
Q 45.3125 48.734375 45.3125 54.390625 
Q 45.3125 60.0625 41.71875 63.234375 
Q 38.140625 66.40625 31.78125 66.40625 
Q 25.390625 66.40625 21.84375 63.234375 
Q 18.3125 60.0625 18.3125 54.390625 
z
" id="DejaVuSans-56"/>
     </defs>
     <g transform="translate(354.35 80.514687)scale(0.1 -0.1)">
      <use xlink:href="#DejaVuSans-50"/>
      <use x="63.623047" xlink:href="#DejaVuSans-48"/>
      <use x="127.246094" xlink:href="#DejaVuSans-49"/>
      <use x="190.869141" xlink:href="#DejaVuSans-56"/>
     </g>
    </g>
    <g id="line2d_28"/>
    <g id="line2d_29">
     <g>
      <use style="fill:#d62728;stroke:#d62728;" x="336.35" xlink:href="#m40ab09a318" y="91.692813"/>
     </g>
    </g>
    <g id="text_22">
     <!-- 2019 -->
     <defs>
      <path d="M 10.984375 1.515625 
L 10.984375 10.5 
Q 14.703125 8.734375 18.5 7.8125 
Q 22.3125 6.890625 25.984375 6.890625 
Q 35.75 6.890625 40.890625 13.453125 
Q 46.046875 20.015625 46.78125 33.40625 
Q 43.953125 29.203125 39.59375 26.953125 
Q 35.25 24.703125 29.984375 24.703125 
Q 19.046875 24.703125 12.671875 31.3125 
Q 6.296875 37.9375 6.296875 49.421875 
Q 6.296875 60.640625 12.9375 67.421875 
Q 19.578125 74.21875 30.609375 74.21875 
Q 43.265625 74.21875 49.921875 64.515625 
Q 56.59375 54.828125 56.59375 36.375 
Q 56.59375 19.140625 48.40625 8.859375 
Q 40.234375 -1.421875 26.421875 -1.421875 
Q 22.703125 -1.421875 18.890625 -0.6875 
Q 15.09375 0.046875 10.984375 1.515625 
z
M 30.609375 32.421875 
Q 37.25 32.421875 41.125 36.953125 
Q 45.015625 41.5 45.015625 49.421875 
Q 45.015625 57.28125 41.125 61.84375 
Q 37.25 66.40625 30.609375 66.40625 
Q 23.96875 66.40625 20.09375 61.84375 
Q 16.21875 57.28125 16.21875 49.421875 
Q 16.21875 41.5 20.09375 36.953125 
Q 23.96875 32.421875 30.609375 32.421875 
z
" id="DejaVuSans-57"/>
     </defs>
     <g transform="translate(354.35 95.192813)scale(0.1 -0.1)">
      <use xlink:href="#DejaVuSans-50"/>
      <use x="63.623047" xlink:href="#DejaVuSans-48"/>
      <use x="127.246094" xlink:href="#DejaVuSans-49"/>
      <use x="190.869141" xlink:href="#DejaVuSans-57"/>
     </g>
    </g>
   </g>
  </g>
 </g>
 <defs>
  <clipPath id="pcee42c665b">
   <rect height="217.44" width="334.8" x="54" y="34.56"/>
  </clipPath>
 </defs>
</svg>
